# AST/ASF file generated using VICON BodyLanguage
# -----------------------------------------------
:version 1.10
:name VICON
:units
  mass 1.0
  length 0.45
  angle deg
:documentation
   .ast/.asf automatically generated from VICON data using
   VICON BodyBuilder and BodyLanguage model FoxedUp or BRILLIANT.MOD
:root
   order TX TY TZ RX RY RZ
   axis XYZ
   position 0 0 0  
   orientation 0 0 0 
:bonedata
  begin
     id 1 
     name lhipjoint
     direction 0.588788 -0.725889 0.355548 
     length 2.37778 
     axis 0 0 0  XYZ
  end
  begin
     id 2 
     name lfemur
     direction 0.34202 -0.939693 0  
     length 6.86393  
     axis 0 0 20  XYZ
    dof rx ry rz
    limits (-160.0 20.0)
           (-70.0 70.0)
           (-60.0 70.0)
  end
  begin
     id 3 
     name ltibia
     direction 0.34202 -0.939693 0   
     length 7.32851   
     axis 0 0 20   XYZ
    dof rx
    limits (-10.0 170.0)
  end
  begin
     id 4 
     name lfoot
     direction 0.0626533 -0.172138 0.983078   
     length 1.98929   
     axis -90 7.62852e-016 20   XYZ
    dof rx rz
    limits (-45.0 90.0)
           (-70.0 20.0)
  end
  begin
     id 5 
     name ltoes
     direction 1.53647e-011 -4.21734e-011 1   
     length 1.00479   
     axis -90 7.62852e-016 20   XYZ
    dof rx
    limits (-90.0 20.0)
  end
  begin
     id 6 
     name rhipjoint
     direction -0.59141 -0.724168 0.354705   
     length 2.38343  
     axis 0 0 0  XYZ 
  end
  begin
     id 7 
     name rfemur
     direction -0.34202 -0.939693 0   
     length 6.95589   
     axis 0 0 -20   XYZ
    dof rx ry rz
    limits (-160.0 20.0)
           (-70.0 70.0)
           (-70.0 60.0)
  end
  begin
     id 8 
     name rtibia
     direction -0.34202 -0.939693 0   
     length 7.32327   
     axis 0 0 -20   XYZ
    dof rx
    limits (-10.0 170.0)
 end
 begin
     id 9 
     name rfoot
     direction -0.0660461 -0.18146 0.981178   
     length 1.85272  
     axis -90 -7.62852e-016 -20   XYZ
    dof rx rz
    limits (-45.0 90.0)
           (-20.0 70.0)
  end
  begin
     id 10 
     name rtoes
     direction -1.53586e-011 -4.21988e-011 1   
     length 0.93746   
     axis -90 -7.62852e-016 -20   XYZ
    dof rx
    limits (-90.0 20.0)
  end
  begin
     id 11 
     name lowerback
     direction -0.0107982 0.991059 0.13299   
     length 1.98691   
     axis 0 0 0   XYZ
    dof rx ry rz
    limits (-20.0 45.0)
           (-30.0 30.0)
           (-30.0 30.0)
  end
  begin
     id 12 
     name upperback
     direction 0.0076296 0.999916 0.0104576   
     length 1.99501   
     axis 0 0 0   XYZ
    dof rx ry rz
    limits (-20.0 45.0)
           (-30.0 30.0)
           (-30.0 30.0)
  end
  begin
     id 13 
     name thorax
     direction 0.01176 0.998615 -0.0512909   
     length 2.03144   
     axis 0 0 0   XYZ
    dof rx ry rz
    limits (-20.0 45.0)
           (-30.0 30.0)
           (-30.0 30.0)
  end
  begin
     id 14 
     name lowerneck
     direction -0.0171909 0.999644 0.0204011   
     length 1.71818   
     axis 0 0 0   XYZ
    dof rx ry rz
    limits (-20.0 45.0)
           (-30.0 30.0)
           (-30.0 30.0)
  end
  begin
     id 15 
     name upperneck
     direction 0.0250902 0.997482 -0.0663316   
     length 1.66199   
     axis 0 0 0   XYZ
    dof rx ry rz
    limits (-20.0 45.0)
           (-30.0 30.0)
           (-30.0 30.0)
  end
  begin
     id 16
     name head
     direction 0.00881535 0.99956 -0.0283365  
     length 1.81545  
     axis 0 0 0   XYZ
    dof rx ry rz
    limits (-20.0 45.0)
           (-30.0 30.0)
           (-30.0 30.0)
  end
  begin
     id 17 
     name lclavicle
     direction 0.840411 0.486876 -0.238035  
     length 3.30409  
     axis 0 0 0   XYZ
    dof ry rz
    limits (-20.0 10.0)
           (0.0 20.0)
  end
  begin
     id 18 
     name lhumerus
     direction 1 -4.48977e-011 -5.16239e-027   
     length 4.62672   
     axis 180 -30 -90   XYZ
    dof rx ry rz
    limits (-60.0 90.0)
           (-90.0 90.0)
           (-90.0 90.0)
  end
  begin
     id 19
     name lradius
     direction 1 -4.48977e-011 -8.71171e-027   
     length 3.11018   
     axis 180 -30 -90   XYZ
    dof rx
    limits (-10.0 170.0)
  end
  begin
     id 20
     name lwrist
     direction 1 -4.48912e-011 -1.03764e-026   
     length 1.55509   
     axis 9.09556e-015 90 90   XYZ
    dof ry
    limits (-180.0 0.0)
 end
  begin
     id 21 
     name lhand
     direction 1 -4.49072e-011 -2.07528e-026   
     length 0.743834   
     axis 1.3242e-014 90 90   XYZ
    dof rx rz
    limits (-90.0 90.0)
           (-45.0 45.0)
  end
  begin
     id 22 
     name lfingers
     direction 1 -4.48909e-011 -4.15056e-026   
     length 0.599698   
     axis 2.64841e-014 90 90   XYZ
    dof rx
    limits (0.0 90.0)
  end
  begin
     id 23
     name lthumb
     direction 0.707107 -6.35013e-011 0.707107   
     length 0.86105   
     axis -90 45 2.85299e-015   XYZ
    dof rx rz
    limits (-45.0 45.0)
           (-45.0 45.0)
  end
  begin
     id 24 
     name rclavicle
     direction -0.835208 0.500237 -0.228452   
     length 3.2716  
     axis 0 0 0   XYZ 
    dof ry rz
    limits (-10.0 20.0)
           (-20.0 0.0)
  end
  begin
     id 25 
     name rhumerus
     direction -1 -4.48978e-011 -5.1953e-028  
     length 4.55919   
     axis 180 30 90   XYZ
    dof rx ry rz
    limits (-90.0 60.0)
           (-90.0 90.0)
           (-90.0 90.0)
  end
  begin
     id 26 
     name rradius
     direction -1 -4.48961e-011 -5.99546e-027   
     length 3.22748   
     axis 180 30 90   XYZ
    dof rx
    limits (-10.0 170.0)
  end
  begin
     id 27 
     name rwrist
     direction -1 -4.48986e-011 -1.03764e-026   
     length 1.61374   
     axis 9.09556e-015 -90 -90   XYZ
    dof ry
    limits (-180.0 0.0)
  end
  begin
     id 28
     name rhand
     direction -1 -4.4899e-011 -2.07528e-026   
     length 0.700882   
     axis 1.3242e-014 -90 -90   XYZ
    dof rx rz
    limits (-90.0 90.0)
           (-45.0 45.0)
  end
  begin
     id 29
     name rfingers
     direction -1 -4.48991e-011 -4.15056e-026   
     length 0.565069   
     axis 2.64841e-014 -90 -90   XYZ
    dof rx
    limits (0.0 90.0)
  end
  begin
     id 30
     name rthumb
     direction -0.707107 -6.34804e-011 0.707107   
     length 0.811329   
     axis -90 -45 -2.85299e-015   XYZ
    dof rx rz
    limits (-45.0 45.0)
           (-45.0 45.0)
  end
:hierarchy
  begin
    root lhipjoint rhipjoint lowerback
    lhipjoint lfemur
    lfemur ltibia
    ltibia lfoot
    lfoot ltoes
    rhipjoint rfemur
    rfemur rtibia
    rtibia rfoot
    rfoot rtoes
    lowerback upperback
    upperback thorax
    thorax lowerneck lclavicle rclavicle
    lowerneck upperneck
    upperneck head
    lclavicle lhumerus
    lhumerus lradius
    lradius lwrist
    lwrist lhand lthumb
    lhand lfingers
    rclavicle rhumerus
    rhumerus rradius
    rradius rwrist
    rwrist rhand rthumb
    rhand rfingers
  end

#!OML:ASF F:\VICON\USERDATA\INSTALL\SteveWalk\SteveWalk.ASF
:FULLY-SPECIFIED
:DEGREES
32
root -0.394553 15.9919 -37.47 18.9737 -5.36556 0.130642
lowerback -18.3566 2.26083 -2.49721
upperback -4.8992 3.46467 -0.663943
thorax 4.88722 1.68616 1.47184
lowerneck -4.26478 -1.49034 0.0722264
upperneck 7.35107 -1.94142 -0.781785
head 3.08545 -0.990187 -0.342533
rclavicle -4.37963e-014 4.96962e-016
rhumerus -30.9658 4.49791 -82.954
rradius 57.1734
rwrist -16.2349
rhand -15.1842 -33.822
rfingers 7.12502
rthumb 10.9871 -63.5145
lclavicle -4.37963e-014 4.96962e-016
lhumerus -64.0552 33.9279 46.1201
lradius 11.6896
lwrist -45.6265
lhand -12.2217 -17.6121
lfingers 7.12502
lthumb 13.8433 11.9073
rfemur 0.723713 -3.54516 17.9977
rtibia 25.4995
rfoot -14.093 18.7485
rtoes -15.7551
lfemur -50.5512 3.57908 -23.1756
ltibia 22.6522
lfoot -2.23036 0.456311
ltoes -11.5192
33
root -0.384415 15.9941 -37.2046 19.0485 -5.2728 0.449224
lowerback -18.912 2.20449 -3.03875
upperback -4.86483 3.52299 -0.860225
thorax 5.19422 1.70371 1.60908
lowerneck -4.5348 -1.60363 -0.145581
upperneck 7.49912 -2.12123 -0.209913
head 3.19609 -1.06437 -0.131
rclavicle 4.55217e-014 3.57812e-015
rhumerus -31.928 3.81454 -83.0112
rradius 56.8172
rwrist -15.9702
rhand -14.9289 -34.2212
rfingers 7.12502
rthumb 11.2333 -63.9004
lclavicle 4.55217e-014 3.57812e-015
lhumerus -65.4803 35.5272 42.7718
lradius 11.4808
lwrist -47.2744
lhand -12.0261 -17.1598
lfingers 7.12502
lthumb 14.0319 12.3466
rfemur 0.193102 -3.14365 17.6559
rtibia 27.4314
rfoot -11.0619 19.3696
rtoes -13.0789
lfemur -50.9175 3.67354 -23.6538
ltibia 24.3524
lfoot -1.44498 -0.85506
ltoes -10.0062
34
root -0.386008 15.9867 -36.9547 19.8322 -4.81666 0.48001
lowerback -19.9519 2.02438 -3.37367
upperback -5.03815 3.39375 -0.96182
thorax 5.54708 1.63041 1.70364
lowerneck -5.00916 -1.69468 -0.249247
upperneck 7.96765 -2.26459 0.147433
head 3.45575 -1.1236 -0.0110012
rclavicle -3.41257e-014 6.55989e-015
rhumerus -32.9197 3.07898 -83.1235
rradius 56.6235
rwrist -15.746
rhand -14.535 -34.735
rfingers 7.12502
rthumb 11.6132 -64.3932
lclavicle -3.41257e-014 6.55989e-015
lhumerus -67.0555 37.1982 39.1457
lradius 11.2119
lwrist -49.5065
lhand -11.3657 -16.2473
lfingers 7.12502
lthumb 14.6681 13.2139
rfemur -1.29889 -2.87827 17.896
rtibia 29.7116
rfoot -6.55049 19.5647
rtoes -10.1757
lfemur -52.1231 4.22595 -24.3186
ltibia 26.1742
lfoot -0.837568 -2.84893
ltoes -10.2198
35
root -0.376761 15.9622 -36.7643 19.4267 -2.19996 0.987105
lowerback -19.2219 1.12983 -3.69068
upperback -4.88059 2.26858 -1.04571
thorax 5.37649 1.08218 1.50796
lowerneck -5.3779 -1.79722 -0.305844
upperneck 8.0999 -2.42354 0.449757
head 3.57945 -1.19065 0.0857557
rclavicle 9.51682e-015 5.1684e-015
rhumerus -33.4086 2.45301 -83.2898
rradius 55.6936
rwrist -15.303
rhand -15.1511 -35.0934
rfingers 7.12502
rthumb 11.019 -64.7841
lclavicle 9.51682e-015 5.1684e-015
lhumerus -69.3025 39.4957 34.3638
lradius 10.8387
lwrist -53.135
lhand -10.904 -15.562
lfingers 7.12502
lthumb 15.113 13.8663
rfemur -1.57518 -4.12388 18.2616
rtibia 32.4497
rfoot -2.66091 19.0485
rtoes -11.1186
lfemur -52.0168 2.06288 -24.4762
ltibia 27.8338
lfoot -0.7961 -3.76024
ltoes -11.9366
36
root -0.368466 15.958 -36.5131 18.9476 -2.07186 1.50607
lowerback -18.4158 1.06734 -4.57033
upperback -5.15808 2.31172 -1.21102
thorax 4.61998 1.12014 1.80863
lowerneck -5.38478 -1.9746 -0.522845
upperneck 8.59461 -2.67823 0.803902
head 3.76559 -1.30712 0.225026
rclavicle 1.57801e-014 -1.59028e-015
rhumerus -34.7428 1.68211 -83.3235
rradius 54.578
rwrist -15.3138
rhand -15.4184 -35.9722
rfingers 7.12502
rthumb 10.7612 -65.6765
lclavicle 1.57801e-014 -1.59028e-015
lhumerus -71.3973 40.2473 30.7377
lradius 10.6239
lwrist -55.7216
lhand -11.1219 -15.7393
lfingers 7.12502
lthumb 14.9031 13.7046
rfemur -2.20949 -3.86709 17.6491
rtibia 35.6086
rfoot 0.952986 18.7262
rtoes -12.5154
lfemur -51.3769 1.8267 -25.0659
ltibia 29.3329
lfoot -1.54983 -3.71584
ltoes -12.7884
37
root -0.363723 15.9678 -36.2773 18.5325 -1.85228 2.28195
lowerback -17.8449 0.892902 -5.63933
upperback -5.21476 2.25336 -1.51094
thorax 4.22688 1.09995 2.06188
lowerneck -5.68546 -2.06283 -0.553568
upperneck 9.07875 -2.83185 1.1529
head 4.0053 -1.36555 0.332536
rclavicle 1.75167e-014 2.10712e-014
rhumerus -35.8268 0.848468 -83.5012
rradius 53.5424
rwrist -14.962
rhand -15.4447 -36.0503
rfingers 7.12502
rthumb 10.7359 -65.756
lclavicle 1.75167e-014 2.10712e-014
lhumerus -71.6211 40.531 29.665
lradius 10.6648
lwrist -56.2419
lhand -11.3115 -16.3013
lfingers 7.12502
lthumb 14.7204 13.156
rfemur -3.13369 -3.83377 16.7951
rtibia 38.6487
rfoot 4.858 17.7627
rtoes -14.3588
lfemur -50.7908 1.25845 -25.7362
ltibia 30.7905
lfoot -2.46534 -3.78218
ltoes -11.5464
38
root -0.38463 15.9751 -36.1111 19.0234 -0.212235 3.271
lowerback -17.3124 0.103071 -7.0728
upperback -5.48284 1.41955 -1.67094
thorax 3.67703 0.713243 2.51459
lowerneck -6.00265 -2.08356 -0.568119
upperneck 9.11871 -2.8891 1.46399
head 4.09005 -1.37822 0.432105
rclavicle -9.09595e-015 3.18055e-015
rhumerus -36.6104 0.022856 -83.5687
rradius 52.5373
rwrist -14.7319
rhand -15.3584 -35.7976
rfingers 7.12502
rthumb 10.8191 -65.499
lclavicle -9.09595e-015 3.18055e-015
lhumerus -70.9364 40.7091 30.0299
lradius 10.8331
lwrist -55.7098
lhand -11.6146 -16.7331
lfingers 7.12502
lthumb 14.4284 12.7454
rfemur -5.28578 -4.83382 16.4719
rtibia 41.9862
rfoot 8.19627 16.9402
rtoes -15.8008
lfemur -51.2992 0.113657 -26.7018
ltibia 31.9678
lfoot -2.86804 -5.24028
ltoes -7.65913
